<svg width="105" height="22" viewBox="0 0 105 22" fill="none" xmlns="http://www.w3.org/2000/svg">
    <path opacity="0.75" fill-rule="evenodd" clip-rule="evenodd"
          d="M16.1683 4.01663L18.3036 2.44022C16.3512 0.859253 13.9146 -0.0022559 11.4026 4.43651e-06L11.3987 3.74462e-06C9.95468 -0.00118935 8.52461 0.282733 7.19054 0.835481C6.02504 1.31839 4.95286 1.99817 4.02034 2.84383L4.01956 2.84297C2.87828 3.873 1.96624 5.13141 1.34259 6.5366C0.793037 7.77483 0.478228 9.10267 0.412424 10.4526L0.412375 10.4526L0.41031 10.4979C0.402974 10.6624 0.39934 10.8272 0.399422 10.9922L0.399418 11.002C0.398225 12.446 0.682145 13.8761 1.23489 15.2102C1.72985 16.4048 2.43164 17.5013 3.30687 18.4499C4.32469 19.558 5.55981 20.4451 6.93563 21.0557C8.17337 21.605 9.50063 21.9198 10.85 21.9858L10.85 21.9862C11.0314 21.9954 11.2145 22 11.3994 22C12.8436 22.0015 14.2738 21.7176 15.6079 21.1647C16.7735 20.6816 17.8457 20.0015 18.778 19.1553L18.7785 19.1558C19.9198 18.1258 20.8318 16.8674 21.4554 15.4622C22.0791 14.057 22.4004 12.5364 22.3986 10.9991C22.4 10.3382 22.3422 9.67848 22.2259 9.0279L19.8582 10.7728V10.9991C19.8587 12.181 19.6108 13.3499 19.1306 14.4299C18.7073 15.382 18.1118 16.2463 17.3753 16.9799L17.3742 16.9788C17.2808 17.0725 17.1853 17.164 17.0878 17.2531L17.0708 17.2684L17.0708 17.2685C16.3543 17.9195 15.5302 18.4429 14.6342 18.815C13.6089 19.2407 12.5096 19.4597 11.3994 19.4596H11.3988V19.4584C10.2169 19.459 9.04806 19.2112 7.96805 18.7311C7.01667 18.3083 6.1529 17.7135 5.41957 16.9779L5.42062 16.9768C5.32185 16.8785 5.22564 16.7778 5.13207 16.6748L5.12938 16.6719C4.47867 15.9555 3.95546 15.1315 3.58367 14.2357C3.15797 13.21 2.93917 12.1103 2.93982 10.9997C2.93977 10.8689 2.94275 10.7382 2.94876 10.6078L2.95105 10.577L2.95023 10.577C3.0018 9.53994 3.24441 8.52005 3.66712 7.56902C4.09034 6.61684 4.68577 5.75242 5.42224 5.01869L5.42476 5.02121C6.20811 4.23469 7.1391 3.61065 8.16429 3.18492C9.18779 2.75989 10.2851 2.54088 11.3933 2.54041V2.54042L11.4076 2.54041C11.5463 2.54062 11.6841 2.54573 11.8211 2.5525L11.8212 2.55059C13.3752 2.62712 14.8807 3.13326 16.1683 4.01663ZM21.4211 6.4616C21.0679 5.68401 20.6255 4.95006 20.103 4.27449L11.4012 10.6898L7.21353 8.0648V11.2228L11.4012 13.8479L21.4211 6.4616ZM87.5845 17.6272H89.9411V4.42936H87.5845V17.6272ZM100.942 14.3088C100.151 15.0757 98.9312 15.459 97.2848 15.459H95.1543V6.5975H97.3036C98.9752 6.5975 100.198 6.96221 100.971 7.69106C101.744 8.4202 102.13 9.51991 102.13 10.9906C102.13 12.4361 101.734 13.5424 100.942 14.3088ZM102.809 6.06966C101.615 4.97609 99.7923 4.42936 97.3414 4.42936H92.7975V17.6271H97.2848C98.353 17.6271 99.3367 17.4952 100.236 17.2313C101.134 16.9673 101.907 16.559 102.554 16.0057C103.202 15.4529 103.705 14.7425 104.063 13.8752C104.421 13.0079 104.6 11.971 104.6 10.7643C104.6 8.72805 104.003 7.16313 102.809 6.06966ZM64.2978 6.62576L67.2803 4.4277H57.2987V17.6293H67.2803V15.4312H60.1471V12.0515H66.2315V9.85332H60.1471V6.62576H64.2978ZM46.297 15.4312H49.2674C51.026 15.4312 51.9176 14.8455 51.9176 13.6015C51.9176 12.384 51.0755 11.7718 49.2674 11.7718H46.297V15.4312ZM46.297 9.57377H49.7634C52.9117 9.57377 54.6455 10.9619 54.6455 13.4822C54.6455 16.1178 52.7322 17.6293 49.3962 17.6293H43.4484V4.4277H54.8131L51.8306 6.62576H46.297V9.57377ZM75.3066 11.6916H72.7816V6.62557H75.3066C77.1318 6.62557 78.1369 7.52512 78.1369 9.15852C78.1369 10.792 77.1318 11.6916 75.3066 11.6916ZM75.3676 4.4277H69.933V17.6291H72.7816V13.8897H75.3676C78.8356 13.8897 80.99 12.0662 80.99 9.15209C80.99 6.23803 78.8356 4.4277 75.3676 4.4277ZM36.0999 15.387C36.9782 15.387 37.8286 15.1739 38.5592 14.7709L39.1904 14.4255L41.0338 15.7841C39.8182 17.0867 38.0251 17.8028 35.9715 17.8028C34.0087 17.8028 32.2184 17.1097 30.9308 15.851C29.6469 14.596 28.9398 12.8575 28.9398 10.9557C28.9398 9.06237 29.6494 7.349 30.9379 6.13133C32.2187 4.92087 34.0128 4.25416 35.9898 4.25416C37.8122 4.25416 39.4061 4.80808 40.5991 5.8561L40.7341 5.97453L38.6909 7.48038C37.9422 6.94276 37.0715 6.66953 36.0999 6.66953C33.5318 6.66953 31.6679 8.50279 31.6679 11.0284C31.6679 13.5539 33.5318 15.387 36.0999 15.387Z"
          fill="#080808" fill-opacity="0.5"/>
</svg>
